<svg version="1.1" viewBox="0 0 3264 2176" xmlns="http://www.w3.org/2000/svg" xmlns:xlink="http://www.w3.org/1999/xlink"><defs><linearGradient id="linearGradient11" x1="1734" x2="1734" y1="1302" y2="-13" gradientUnits="userSpaceOnUse"><stop stop-color="#cb764c" offset="0"/><stop stop-color="#4e2652" offset="1"/></linearGradient><radialGradient id="radialGradient2" cx="1647" cy="1103" r="474" gradientTransform="matrix(.736 -.669 .706 .777 -321 1325)" gradientUnits="userSpaceOnUse"><stop stop-color="#dbc5bd" offset=".486"/><stop stop-color="#dbc5bd" stop-opacity="0" offset="1"/></radialGradient></defs><g><rect x="-22.8" y="-22.8" width="3388" height="1328" fill="url(#linearGradient11)"/><circle cx="1677" cy="1089" r="498" fill="url(#radialGradient2)" opacity=".208" stroke-width="2.49" style="mix-blend-mode:normal"/><circle cx="1670" cy="1151" r="224" fill="#bebe9a" stroke-width="1.12"/></g><g><path d="m2530 1155c-2.89-1.44-89.5-20.9-130-52.7 0 0-59.2 0-75.8-3.61 0 0-46.9 15.9-71.4 0-24.5-15.9-36.8-4.33-36.8-4.33s-105 31.7-125 27.4-49.1-8.66-49.1-8.66-23.8 2.89-56.3 15.9-84.4 24.5-84.4 24.5l-181 36.1-49.1-28.1s-173-21.6-222-59.2c0 0-99.6 41.8-167 13.7s-83.7-31.7-83.7-31.7-67.1 0-96-12.3c-28.9-12.3-60.6-11.5-60.6-11.5s-24.5-7.22-27.4-12.3c0 0-60.6 36.8-82.3 37.5-21.6 0.722-52 2.16-92.4 18-40.4 15.9-93.1 23.1-110 22.4-17.3-0.722-182 66.4-182 66.4l1429 139s658-69.8 650-71.9c-8.72-2.18-97.2-105-97.2-105z" fill="#9f6358"/><path d="m3270 1183s-133 107-301 0c-168-107-276-40.5-276-40.5s-23.8 37.3-140 11.1c-116-26.2-163-6.35-163-6.35s-69.9 33.4-182-18.3l-279 65.1-215 32.6-134-15.9s-38.1-11.9-69.1-13.5c-31-1.59-66.7 4.77-66.7 4.77s-224 8.74-293-26.2c-69.1-35-157-26.2-157-26.2s-38.9 4.77-113 38.1-131 10.3-131 10.3-130-0.794-195-19.1c-64.3-18.3-98.5-18.3-98.5-18.3s-50.8 7.15-81 24.6c-30.2 17.5-86.6 14.3-86.6 14.3s-131-6.35-220 24.6c-89 31 2.38 90.6 1.59 87.4-0.794-3.18 2139 217 2139 217l1059 15 30-207z" fill="#8b4d5d"/><path d="m3274 1294s-258-5.75-316-13.7c-57.5-7.91-80.5-24.5-80.5-24.5s-28.8-10.8-119-10.8h-102v24.5h-18v-21.6h-102v12.2h-18v-53.2h-6.6v9.18h-3.77v-8.79h-6.69v8.37h-4.6v-8.37h-6.69v7.95h-5.44v-7.11h-7.11v8.37h-6.69v-9.21h-6.69v10h-5.02v-9.21h-8.79v67.4h-32.2v-36h-5.44v11.3h-3.77v-10.9h-5.02v10.9h-4.6v-10.9h-4.6v10h-4.6v-10h-4.6v9.21h-4.18v-8.79h-7.95v28.5h-77.4v-31.8h-4.6v8.37h-6.28v-8.79h-5.86v8.79h-5.44v-8.79h-4.6v7.95h-5.44v-7.53h-5.02v69h-17.2v20.1h-14.6v-107h-7.95v9.62h-4.6v-9.62h-5.86v8.37h-3.77v-8.79h-5.02v8.37h-4.6v-7.95h-6.28v7.11h-4.6v-6.69h-9.62v52.7h-39.7v-33.1s1.26-4.6-5.86-9.62c-7.11-5.02-7.95-12.6-7.95-12.6s-2.51-19.7-5.02 0c0 0-0.837 11.3-8.37 13s-5.02 46.4-5.02 46.4h-27.6v-20.1s-7.11-27.2-14.2-0.418v19.7h-23.4v-43.5s-6.69-22.6-10 0v17.6s-15.1-14.6-93.7-12.1v-34.3h-10v-37.7s-8.37-4.18-4.6-7.95c3.77-3.77-3.77-8.37-3.77-8.37s-3.35-8.79-6.28-0.418c0 0-5.02 4.18-2.93 8.79s-0.418 6.69-0.418 6.69h-19.2s1.67-20.5-15.5-1.26l-18.8-1.26s-0.418-25.9-6.28-27.6c0 0-7.11-11.7-33.5-29.7 0 0-2.09-43.9-7.53 0 0 0-30.5 19.2-34.3 36.4h-109l-16.6 61.9v-88.7l-8.1-1.67s2.93-19.7-3.77-26.8c0 0-2.51-31-5.44 0 0 0-5.02 11.3-4.6 25.1h-5.86v103h-44.8s-32.6-3.77-32.6 32.6v25.9h-36.8v-28h-43.9v50.6h-115v-39.3h-90.4v-13h-37.7v11.3h-18v-24.7s-9.21-14.6-20.5-15.5c0 0-2.09-13.8-6.28 0 0 0-15.1 6.28-16.1 16.1h-9v-16.9h-126v31.8h-31.8v-23h-23.8v41.4h-29.7v13.4h-9.62v-12.6h-54.8s-5.02-29.7-8.37-0.837h-7.11s-0.837-64.9-7.95 0h-7.95s-0.521-26.2-7.53 0v6.69h-25.1l-12.1-61.5-13 75.3h-10.9v-23s-20.9-18.4-47.3-17.6c-1.26-3.77-0.418-24.7-0.418-24.7l-24.3-19.2s-5.86-32.6-7.95 0l-26.8 19.7v22.6h-11.3v46.9h-36.8v-39.7s-56.5-11.7-66.5-25.1c0 0-1.6-30.3-8.12-2.18 0 0 0.172 7.2-7.78 13.1s-12.1 10.9-12.1 10.9-6.28 7.11 0 8.79v69h-14.2s2.51-37.2-22.6-38.5c0 0-5.44-11.3-59.4-8.37-54 2.93-172-31.8-172-31.8s-135-67.8-255-64.4c-120 3.35-49 231-49 231l-8.3 871 3372-52.4z" fill="#4e2652"/><path d="m1899 1503h-739s49.9 41.3 50.2 42.5c0.306 1.22 415-21.7 415-21.7s259 0.918 260-0.306c0.612-1.22 14.1-20.5 14.1-20.5z" fill="#bfa979"/><path d="m2368 1299-18 0.721 1.44 113h-14.4l-1.44-31-1307 1.44 0.719-76.3 0.137-4.35s-10-0.647-10.2 0 0 16.3 0 16.3l-4.21 0.162 0.162-17-10.3-0.322 0.162 15.8-4.53-0.162 0.324-15.5-11.3-0.16 0.484 16.2-5.34-0.324-2.59-0.324v-14.7h-11.5l-0.484 101-27.5 0.16 0.971-71.6-7.92-0.162v14.9l-5.82-0.16 0.486-14.9h-9.38l-0.162 15.2-6.63-0.322 0.162-15.2h-8.73l0.162 14.6-5.98-0.16 0.162-14.2-8.89 0.162-1.46 99.8-160-1.15v35.3s-180-8.35-291 43.6c-111 52-276 49.2-276 49.2s-150-30.6-191-2.79c-40.8 27.8-17.6 170-17.6 170l6.5 486s3329 3.7 3337 6.49c-1.14-4.28-23.3-682-22.4-684-1.11-0.687-85.3-52.2-251 0.726-167 53.3-256-61.2-256-61.2s-46.8-38.2-263-13l-2.88-161h-23v15.1l-14.4 0.721v-15.8h-19.4v15.8h-13l0.721-15.8h-18.7v17.3h-12.2l0.721-17.3h-21.6l-0.719 18h-11.5zm929 918s-2e-4 0.01 0 0.01c0-1e-4 -2e-4 0 0.01 0-1e-4 0 0-0.01 0-0.01zm-1050-806c26.7 0.096 29.7 26.3 29.7 26.3l-71.9 19.3s-9.4-34.2 29.3-43.9c4.84-1.21 9.14-1.72 12.9-1.71zm-518 0.609c34.2 0 43.6 43.6 43.6 43.6v59.1l-175 13.4-320-1.34-116-24.2-1.34-52.4s9.4-36.3 34.9-36.3c25.5 0 36.3 29.5 36.3 29.5l1.34 73.2h53l-0.672-66.5s7.39-36.3 36.9-36.9 38.9 34.2 38.9 34.2l0.672 67.8 54.4 0.672 0.672-67.8s5.37-34.2 37.6-34.9 36.9 34.9 36.9 34.9l2.01 67.8h51v-61.1s3.36-41 41-41 44.6 44.6 44.6 44.6v56.7h58.7v-63.1s6.04-40.3 40.3-40.3zm387 0.639c38.9 1.24 35.7 50.4 35.7 50.4h-74.5s-8.06-48.3 34.9-50.4c1.34-0.063 2.64-0.073 3.89-0.033zm-254 1.04c33.2 0 37.6 37.6 37.6 37.6v52s-74.9 6.6-75.5 9.98v0.09c-0.01-0.029-0.01-0.06 0-0.09v-61.7s4.7-37.9 37.9-37.9zm-790 0.082c10.1-0.285 21.9 4.3 31.7 21.5 0 0 2.89 17.4 1.74 46.9l-41.1-23.1s2.89-33.6-15.6-36.4c0 0 10.3-8.42 23.2-8.79zm919 0.135c25.4 1.25 34.3 29 34.3 29v32.2l-71.8 16.8v-45.7s2.68-29.5 32.2-32.2c1.85-0.168 3.62-0.203 5.31-0.119z" fill="#3f1f42"/></g><g><path d="m3290 1892s-164-50.6-237-103c-72.8-52.6-684-76.9-684-76.9s-251-18.2-74.9-32.4c176-14.2 180-34.4 180-34.4s68.8-44.5-95.1-58.7c-164-14.2-544-32.4-544-32.4l-206-6.07 46.5 38.4 83 12.1 78.9 20.2h-907s-645 0-360 46.5c285 46.5 405 50.6 405 50.6s152 12.1-42.5 20.2c-194 8.09-78.9 32.4-78.9 32.4s255 30.4-2.02 50.6c-257 20.2-415 85-415 85s-350 101-471 103c-121 2.02-46.5 219-46.5 219s3529-18.2 3523-4.05c-6.07 14.2-152-330-152-330z" fill="#ca8059"/><path d="m1899 1502h-76.5v12.2s39.2-1.84 76.5-12.2z" fill="#bfa979"/><path d="m1161 1503h68.3v13.5h56.3v-12h75.1v12.8h54.8v-11.3h75.1v10.5h52.6v-9.01h84.9v8.26h60.8v-11.3h81.1v10.5l-212 20.3s-136 9.76-24.8 12c111 2.25 134 4.51 134 4.51s23.3 0.751 12 7.51c-11.3 6.76-0.751 13.5-0.751 13.5s98.4 27.8 348 23.3c249-4.51 300 19.5 300 19.5s48.1 17.3-13.5 24.8-436 25.5-436 25.5-266 12.8-35.3 30c231 17.3 651 67.6 728 76.6 76.6 9.01 133 26.3 133 26.3s110 34.5-48.1 66.8-570 72.1-758 76.6c-188 4.51-460 16.5-460 16.5s-395 11.3-508 3.75c-113-7.51-131-24.8-131-24.8s-52.6-24 21-58.6c73.6-34.5 190-48.1 190-48.1l685-82.6s169-29.3-18.8-33.8c-188-4.51-407-9.76-407-9.76l-323-8.26s-275-6.01 38.3-27c313-21 775-27.8 775-27.8s259-20.3 125-30.8c0 0-115-5.26-125-7.51-10.5-2.25-122-26.3-122-26.3s-124-18.8-165-11.3c-41.3 7.51-138-9.76-146-17.3-8.26-7.51-163-45.8-163-45.8z" fill="#bfa979"/></g><g><g fill="#956351"><path d="m577 1282h14.5v-17.6h-15.4z"/><path d="m678 1226v15.8h12.2v-15.4z"/><path d="m700 1225v16.7h12.2v-16.3z"/><path d="m689 1267v18.1h15.8v-16.7z"/><path d="m728 1269v16.7h12.7v-17.2z"/><path d="m750 1270v16.7h12.2v-16.7z"/></g><ellipse cx="1630" cy="1166" rx="5.58" ry="7.57" fill="#b88b7a"/><path d="m1626 1135 7.21-0.36v-9.37s-3.96-9.01-6.85 0.36z" fill="#dbc5bd"/><g fill="#956351"><path d="m2126 1267h3.91v-12.9s-2.15-10.4-4.3 0"/><path d="m2113 1266h3.91v-12.9s-2.15-10.4-4.3 0"/><path d="m1058 1254v13.1h14.9v-13.1z"/><path d="m1090 1253v13.1h14.9v-12.7z"/><path d="m1168 1243v14.5h16.7v-14z"/></g><g fill="#b88b7a"><path d="m1788 1223h7.42v-37.3s-6.62 1.59-7.15 9.27c-0.53 7.68-0.265 28.1-0.265 28.1z"/><path d="m1802 1223h8.21v-49.3s-6.54 3.31-7.38 12.8c-0.834 9.47-0.834 36.5-0.834 36.5z"/><path d="m1823 1223h-7.68v-49s8.15 3.86 8.15 14.1-0.468 34.9-0.468 34.9z"/><path d="m1829 1223v-33.4s6.75 1.32 6.75 6.75v26.9z"/><path d="m1863 1223h6.62v-30.5s-6.89 2.65-6.89 6.89c0 4.24 0.265 23.6 0.265 23.6z"/><path d="m1896 1223h-6.62v-29.7s6.62 2.12 6.62 6.62v23z"/><path d="m1877 1223h5.92v-31h-6.62z" stroke-width="1.18"/><ellipse cx="1879" cy="1182" rx="6.36" ry="6.75"/></g></g></svg>
